<?xml version="1.0" encoding="UTF-8" standalone="no"?>
<svg
   xmlns:dc="http://purl.org/dc/elements/1.1/"
   xmlns:cc="http://creativecommons.org/ns#"
   xmlns:rdf="http://www.w3.org/1999/02/22-rdf-syntax-ns#"
   xmlns:svg="http://www.w3.org/2000/svg"
   xmlns="http://www.w3.org/2000/svg"
   xmlns:xlink="http://www.w3.org/1999/xlink"
   xmlns:sodipodi="http://sodipodi.sourceforge.net/DTD/sodipodi-0.dtd"
   xmlns:inkscape="http://www.inkscape.org/namespaces/inkscape"
   sodipodi:docname="restart_primary.svg"
   inkscape:version="1.0.1 (3bc2e813f5, 2020-09-07)"
   width="32"
   height="32"
   viewBox="0 0 32 32"
   version="1.1"
   id="SVGRoot">
  <defs id="defs993">
    <linearGradient inkscape:collect="always" id="linearGradient847">
      <stop style="stop-color:#a22f2f;stop-opacity:1" offset="0" id="stop843" />
      <stop style="stop-color:#e75353;stop-opacity:1" offset="1" id="stop845" />
    </linearGradient>

    <linearGradient
       inkscape:collect="always"
       xlink:href="#linearGradient1133"
       id="linearGradient1142"
       x1="5.9999781" y1="11.692317"
       x2="15.100341" y2="11.692317"
       gradientUnits="userSpaceOnUse"
       gradientTransform="translate(47)" />

    <linearGradient inkscape:collect="always" id="linearGradient1133">
      <stop style="stop-color:#ff7a7a;stop-opacity:1" offset="0" id="stop1128" />
      <stop style="stop-color:#e75353;stop-opacity:1" offset="1" id="stop1131" />
    </linearGradient>

    <linearGradient
       inkscape:collect="always"
       xlink:href="#linearGradient847"
       id="linearGradient1145"
       x1="56.300999" y1="17.299999"
       x2="68.599976" y2="17.299999"
       gradientUnits="userSpaceOnUse" />

    <linearGradient
       inkscape:collect="always"
       xlink:href="#linearGradient847"
       id="linearGradient1134-7"
       x1="3.0999999" y1="16.200001"
       x2="29.1" y2="16.200001"
       gradientUnits="userSpaceOnUse"
       gradientTransform="matrix(0.99901279,0,0,0.99901279,46.928728,-0.07117351)" />
  </defs>

  <sodipodi:namedview
     inkscape:window-maximized="1"
     inkscape:window-y="0"
     inkscape:window-x="0"
     inkscape:window-height="1016"
     inkscape:window-width="1920"
     showgrid="true"
     inkscape:document-rotation="0"
     inkscape:current-layer="layer1"
     inkscape:document-units="px"
     inkscape:cy="16.048607"
     inkscape:cx="47.5"
     inkscape:zoom="8"
     inkscape:pageshadow="2"
     inkscape:pageopacity="0.0"
     borderopacity="1.0"
     bordercolor="#666666"
     pagecolor="#ffffff"
     id="base">
    <inkscape:grid originy="27.425" originx="43.275" type="xygrid" id="grid1563" />
  </sodipodi:namedview>

  <metadata id="metadata996">
    <rdf:RDF>
      <cc:Work rdf:about="">
        <dc:format>image/svg+xml</dc:format>
        <dc:type rdf:resource="http://purl.org/dc/dcmitype/StillImage" />
        <dc:title />
      </cc:Work>
    </rdf:RDF>
  </metadata>

  <g transform="translate(43.275,27.425)" id="layer1" inkscape:groupmode="layer" inkscape:label="Layer 1">
    <g id="system-reboot-3" transform="translate(-90.275,-27.425)">
      <g id="g1644">
        <path
           style="color:#000000;overflow:visible;opacity:0;fill:none;fill-opacity:1;stroke-width:1.06667"
           id="path940-6"
           overflow="visible"
           d="M 63,0 C 54.17141,0 47,7.1714133 47,16 47,24.828587 54.17141,32 63,32 71.82752,32 79,24.828587 79,16 79,7.17248 71.82859,0 63,0 Z"
           inkscape:connector-curvature="0" />
        <path
           d="M 53.433324,17.384634 A 0.43333333,0.43333333 0 0 1 52.999991,16.9513 11.2463,11.2463 0 0 1 61.562657,6.0126668 a 0.43363928,0.43363928 0 1 1 0.208,0.8419668 10.382233,10.382233 0 0 0 -7.903999,10.0966664 0.43333333,0.43333333 0 0 1 -0.433334,0.433334 z"
           id="path6-2-9"
           style="fill:url(#linearGradient1142);fill-opacity:1;stroke-width:0.433333" />
        <path
           d="M 58.013239,15.425 H 64.275 v 6.663 c 0,0.835651 1.376349,1.512 2.212,1.512 0.835662,0 2.112977,-0.677338 2.112977,-1.513 v -9.574501 c 0,-0.835656 -0.676076,-1.5125 -1.511738,-1.5125 h -9.075 c -0.835656,0 -1.712239,1.376345 -1.712239,2.212001 0,0.835662 0.890547,2.36513 1.712239,2.213 z"
           id="path2-6"
           style="fill:url(#linearGradient1145);fill-opacity:1.0;stroke-width:0.75625"
           sodipodi:nodetypes="scssssssss" />
        <path
           d="M 63.012834,29.1 C 51.441699,29.1 45.648952,15.111023 53.829987,6.929987 62.011023,-1.2510487 76,4.541699 76,16.112834 75.9919,23.282085 70.182085,29.091889 63.012834,29.1 Z m 0,-24.7085835 c -2.8904,0 -5.227864,0.9966731 -7.119964,2.4615676 -2.733711,2.1164825 -4.328871,5.2189129 -4.509544,8.7143889 -0.08999,1.741109 0.305687,3.865904 1.04197,5.420643 0.585159,1.235624 1.347696,2.326728 2.516514,3.495546 0.942473,0.942474 1.806024,1.543708 2.799927,2.049974 1.637286,0.833988 3.357205,1.339138 5.202102,1.324691 3.255654,-0.02549 6.4185,-1.522859 8.662677,-3.830215 0.933013,-0.95928 1.561966,-2.048133 2.07078,-3.290326 0.56362,-1.375997 0.957054,-2.940147 0.957054,-4.724753 C 74.63095,13.071728 73.639668,10.633072 71.960992,8.5992584 69.820661,6.0061229 66.762904,4.3956953 63.012834,4.3914165 Z"
           id="path2-7-5-53-5-5"
           style="fill:url(#linearGradient1134-7);fill-opacity:1;stroke-width:0.432905"
           sodipodi:nodetypes="cscccsssssssscsc" />
      </g>
    </g>
  </g>
</svg>
