<?xml version="1.0" encoding="UTF-8" standalone="no"?>
<svg
   xmlns:dc="http://purl.org/dc/elements/1.1/"
   xmlns:cc="http://creativecommons.org/ns#"
   xmlns:rdf="http://www.w3.org/1999/02/22-rdf-syntax-ns#"
   xmlns:svg="http://www.w3.org/2000/svg"
   xmlns="http://www.w3.org/2000/svg"
   xmlns:xlink="http://www.w3.org/1999/xlink"
   xmlns:sodipodi="http://sodipodi.sourceforge.net/DTD/sodipodi-0.dtd"
   xmlns:inkscape="http://www.inkscape.org/namespaces/inkscape"
   sodipodi:docname="suspend_primary.svg"
   inkscape:version="1.0.1 (3bc2e813f5, 2020-09-07)"
   id="svg2343"
   version="1.1"
   viewBox="0 0 8.4666662 8.4666662"
   height="8.4666662mm"
   width="8.4666662mm">
  <defs id="defs2337">
    <linearGradient inkscape:collect="always" id="linearGradient847">
      <stop style="stop-color:#a22f2f;stop-opacity:1" offset="0" id="stop843" />
      <stop style="stop-color:#e75353;stop-opacity:1" offset="1" id="stop845" />
    </linearGradient>
    <linearGradient
       inkscape:collect="always"
       xlink:href="#linearGradient1133"
       id="linearGradient1136"
       x1="5.9999771" y1="11.692316"
       x2="15.10034"  y2="11.692316"
       gradientUnits="userSpaceOnUse"
       gradientTransform="translate(141)" />
    <linearGradient inkscape:collect="always" id="linearGradient1133">
      <stop style="stop-color:#ff7a7a;stop-opacity:1" offset="0" id="stop1128" />
      <stop style="stop-color:#e75353;stop-opacity:1" offset="1" id="stop1131" />
    </linearGradient>
    <linearGradient
       inkscape:collect="always"
       xlink:href="#linearGradient847"
       id="linearGradient1161"
       x1="-18.760334" y1="157.10062"
       x2="-14.033334" y2="157.10062"
       gradientUnits="userSpaceOnUse" />
    <linearGradient
       inkscape:collect="always"
       xlink:href="#linearGradient847"
       id="linearGradient1134-9-6"
       x1="3.0999999" y1="16.200001"
       x2="29.1"      y2="16.200001"
       gradientUnits="userSpaceOnUse"
       gradientTransform="translate(140.94932,-0.1506852)" />
  </defs>
  <sodipodi:namedview
     inkscape:document-rotation="0"
     inkscape:window-maximized="1"
     inkscape:window-y="0"
     inkscape:window-x="0"
     inkscape:window-height="1016"
     inkscape:window-width="1920"
     showgrid="true"
     inkscape:current-layer="layer1"
     inkscape:document-units="mm"
     inkscape:cy="18.642948"
     inkscape:cx="9.1288916"
     inkscape:zoom="15.839192"
     inkscape:pageshadow="2"
     inkscape:pageopacity="0.0"
     borderopacity="1.0"
     bordercolor="#666666"
     pagecolor="#ffffff"
     id="base">
    <inkscape:grid type="xygrid" id="grid842" />
  </sodipodi:namedview>
  <metadata id="metadata2340">
    <rdf:RDF>
      <cc:Work rdf:about="">
        <dc:format>image/svg+xml</dc:format>
        <dc:type rdf:resource="http://purl.org/dc/dcmitype/StillImage" />
        <dc:title />
      </cc:Work>
    </rdf:RDF>
  </metadata>
  <g transform="translate(-95.662116,-128.16315)" id="layer1" inkscape:groupmode="layer" inkscape:label="Layer 1">
    <g id="system-suspend" transform="matrix(0.26458333,0,0,0.26458333,58.355866,128.16315)">
      <g id="g1680">
        <circle
           style="opacity:0;fill:#000000;fill-opacity:1;stroke-width:1.06667"
           id="circle949" r="16" cy="16" cx="157" />
        <path
           d="m 147.43332,17.384633 a 0.43333333,0.43333333 0 0 1 -0.43333,-0.433334 11.2463,11.2463 0 0 1 8.56267,-10.9386332 0.43363928,0.43363928 0 1 1 0.208,0.8419668 10.382233,10.382233 0 0 0 -7.904,10.0966664 0.43333333,0.43333333 0 0 1 -0.43334,0.433334 z"
           id="path6-2-2"
           style="fill:url(#linearGradient1136);fill-opacity:1;stroke-width:0.433333" />
        <rect
           x="-18.760334" y="150.601"
           width="4.7270002" height="12.999243"
           rx="2.3635001" ry="2.3635001"
           transform="rotate(-90)"
           id="rect4-6"
           style="fill:url(#linearGradient1161);fill-opacity:1.0;stroke-width:0.590875" />
        <path
           d="m 157.04932,29.049315 c -11.58257,0 -17.38104,-14.0028 -9.19192,-22.1919212 8.18912,-8.18912 22.19192,-2.390648 22.19192,9.1919222 -0.008,7.176336 -5.82366,12.99188 -13,12.999999 z m 0,-24.7330002 c -2.89325,0 -5.23303,0.997659 -7.127,2.464 -2.73641,2.118574 -4.33315,5.2240712 -4.514,8.7230012 -0.0901,1.74283 0.30599,3.869724 1.043,5.426 0.58574,1.236845 1.34903,2.329027 2.519,3.499 0.94341,0.943405 1.80781,1.545233 2.8027,2.052 1.6389,0.834812 3.36052,1.340461 5.20724,1.326 3.25887,-0.02552 6.42484,-1.524364 8.67124,-3.834 0.93393,-0.960228 1.56351,-2.050157 2.07282,-3.293578 0.56418,-1.377356 0.958,-2.943052 0.958,-4.729422 -0.003,-2.944111 -0.99566,-5.385177 -2.676,-7.4210012 -2.14244,-2.595698 -5.20322,-4.207717 -8.957,-4.212 z"
           id="path2-7-5-53-5-0-7"
           style="fill:url(#linearGradient1134-9-6);fill-opacity:1;stroke-width:0.433333"
           sodipodi:nodetypes="cscccsssssssscsc" />
      </g>
    </g>
  </g>
</svg>
