<?xml version="1.0" encoding="UTF-8" standalone="no"?>
<svg
   xmlns:dc="http://purl.org/dc/elements/1.1/"
   xmlns:cc="http://creativecommons.org/ns#"
   xmlns:rdf="http://www.w3.org/1999/02/22-rdf-syntax-ns#"
   xmlns:svg="http://www.w3.org/2000/svg"
   xmlns="http://www.w3.org/2000/svg"
   xmlns:xlink="http://www.w3.org/1999/xlink"
   xmlns:sodipodi="http://sodipodi.sourceforge.net/DTD/sodipodi-0.dtd"
   xmlns:inkscape="http://www.inkscape.org/namespaces/inkscape"
   sodipodi:docname="switch_primary.svg"
   inkscape:version="1.0.1 (3bc2e813f5, 2020-09-07)"
   id="svg1699"
   version="1.1"
   viewBox="0 0 8.4666662 8.4666662"
   height="8.4666662mm"
   width="8.4666662mm">
  <defs id="defs1693">
    <!-- remapped: dark-to-base red -->
    <linearGradient inkscape:collect="always" id="linearGradient849">
      <stop style="stop-color:#a22f2f;stop-opacity:1" offset="0" id="stop845" />
      <stop style="stop-color:#e75353;stop-opacity:1" offset="1" id="stop847" />
    </linearGradient>

    <linearGradient inkscape:collect="always" xlink:href="#linearGradient849"
       id="linearGradient1186"
       x1="308.13702" y1="16.248997"
       x2="299.7677"  y2="16.124727"
       gradientUnits="userSpaceOnUse" />

    <!-- remapped: bright accent to lighter red -->
    <linearGradient inkscape:collect="always" id="linearGradient1133">
      <stop style="stop-color:#ff7a7a;stop-opacity:1" offset="0" id="stop1128" />
      <stop style="stop-color:#e75353;stop-opacity:1" offset="1" id="stop1131" />
    </linearGradient>

    <linearGradient inkscape:collect="always" xlink:href="#linearGradient849"
       id="linearGradient1194"
       x1="290.5" y1="16.200001"
       x2="299.00079" y2="16.200001"
       gradientUnits="userSpaceOnUse" />

    <linearGradient inkscape:collect="always" xlink:href="#linearGradient1133"
       id="linearGradient1138-7"
       x1="5.812449" y1="11.682819"
       x2="14.912812" y2="11.682819"
       gradientUnits="userSpaceOnUse"
       gradientTransform="translate(283.28755,0.02448648)" />

    <linearGradient inkscape:collect="always" xlink:href="#linearGradient849"
       id="linearGradient1134-9-6-9-3-2"
       x1="3.0999999" y1="16.200001"
       x2="29.1"      y2="16.200001"
       gradientUnits="userSpaceOnUse"
       gradientTransform="translate(282.94931,-0.15068534)" />
  </defs>

  <sodipodi:namedview
     inkscape:document-rotation="0"
     inkscape:window-maximized="1"
     inkscape:window-y="0"
     inkscape:window-x="0"
     inkscape:window-height="1016"
     inkscape:window-width="1920"
     showgrid="true"
     inkscape:current-layer="layer1"
     inkscape:document-units="mm"
     inkscape:cy="11.381013"
     inkscape:cx="21.289986"
     inkscape:zoom="15.839192"
     inkscape:pageshadow="2"
     inkscape:pageopacity="0.0"
     borderopacity="1.0"
     bordercolor="#666666"
     pagecolor="#ffffff"
     id="base">
    <inkscape:grid type="xygrid" id="grid844" />
  </sodipodi:namedview>

  <metadata id="metadata1696">
    <rdf:RDF>
      <cc:Work rdf:about="">
        <dc:format>image/svg+xml</dc:format>
        <dc:type rdf:resource="http://purl.org/dc/dcmitype/StillImage" />
        <dc:title />
      </cc:Work>
    </rdf:RDF>
  </metadata>

  <g transform="translate(-98.729144,-81.918987)" id="layer1" inkscape:groupmode="layer" inkscape:label="Layer 1">
    <g id="system-switch-user" transform="matrix(0.26458333,0,0,0.26458333,23.852062,81.918987)">
      <g id="g1729">
        <circle style="opacity:0;fill:none;fill-opacity:1;stroke-width:1.06667"
                id="circle955" r="16" cy="-16" cx="299" transform="scale(1,-1)" />
        <path
           d="m 307.70378,14.99303 c -0.008,-0.01058 -0.0258,-0.0136 -0.0343,-0.02383 l -5.06943,-5.0694 c -0.66464,-0.6664 -1.74081,-0.6664 -2.40379,0 -0.66301,0.663 -0.66301,1.7374 0,2.402102 l 3.8964,3.898098 -3.8964,3.898102 c -0.66301,0.664698 -0.66301,1.739098 0,2.402098 0.66298,0.6664 1.73913,0.6664 2.40379,0 l 5.06773,-5.0694 c 0.009,-0.01072 0.0258,-0.0136 0.0356,-0.02378 0.3332,-0.331499 0.49808,-0.770098 0.4964,-1.207 0.001,-0.436898 -0.1632,-0.875499 -0.4964,-1.207 z"
           id="path2-12-7"
           style="fill:url(#linearGradient1186);fill-opacity:1.0;stroke-width:1.7" />
        <path
           d="m 290.99601,17.407 c 0.008,0.0106 0.0258,0.0136 0.0343,0.0238 l 5.06943,5.0694 c 0.66464,0.6664 1.74081,0.6664 2.40379,0 0.66301,-0.663 0.66301,-1.7374 0,-2.4021 l -3.8964,-3.8981 3.8964,-3.8981 c 0.66301,-0.6647 0.66301,-1.7391 0,-2.4021 -0.66298,-0.6664 -1.73913,-0.6664 -2.40379,0 l -5.06773,5.0694 c -0.009,0.0107 -0.0258,0.0136 -0.0356,0.0238 -0.3332,0.3315 -0.49808,0.7701 -0.4964,1.207 -10e-4,0.4369 0.1632,0.8755 0.4964,1.207 z"
           id="path2-12-7-0"
           style="fill:url(#linearGradient1194);fill-opacity:1.0;stroke-width:1.7" />
        <path
           d="m 289.53335,17.399623 a 0.43333333,0.43333333 0 0 1 -0.43334,-0.433334 11.2463,11.2463 0 0 1 8.56267,-10.9386331 0.43363937,0.43363937 0 1 1 0.208,0.841967 10.382233,10.382233 0 0 0 -7.904,10.0966661 0.43333333,0.43333333 0 0 1 -0.43333,0.433334 z"
           id="path6-1"
           style="fill:url(#linearGradient1138-7);fill-opacity:1;stroke-width:0.433333" />
        <path
           d="m 299.04931,29.049315 c -11.58257,0 -17.38104,-14.002799 -9.19192,-22.1919213 8.18912,-8.18912 22.19192,-2.390648 22.19192,9.1919233 -0.008,7.176336 -5.82366,12.991879 -13,12.999998 z m 0,-24.7330003 c -2.89325,0 -5.23303,0.997659 -7.127,2.464 -2.73641,2.118574 -4.33315,5.2240723 -4.514,8.7230023 -0.0901,1.74283 0.30599,3.869724 1.043,5.426 0.58574,1.236845 1.34903,2.329027 2.519,3.499 0.94341,0.943405 1.80781,1.545233 2.8027,2.052 1.6389,0.834811 3.36052,1.34046 5.20724,1.325999 3.25887,-0.02552 6.42484,-1.524363 8.67124,-3.833999 0.93393,-0.960228 1.56351,-2.050157 2.07282,-3.293578 0.56418,-1.377356 0.958,-2.943052 0.958,-4.729422 -0.003,-2.944111 -0.99566,-5.385177 -2.676,-7.4210023 -2.14244,-2.595698 -5.20322,-4.207717 -8.957,-4.212 z"
           id="path2-7-5-53-5-0-7-2-9-1"
           style="fill:url(#linearGradient1134-9-6-9-3-2);fill-opacity:1;stroke-width:0.433333"
           sodipodi:nodetypes="cscccsssssssscsc" />
      </g>
    </g>
  </g>
</svg>
