<?xml version="1.0" encoding="UTF-8" standalone="no"?>
<svg
   width="128"
   height="128"
   id="svg5048"
   version="1.1"
   sodipodi:docname="login.svg"
   inkscape:version="1.3.2 (091e20ef0f, 2023-11-25, custom)"
   xmlns:inkscape="http://www.inkscape.org/namespaces/inkscape"
   xmlns:sodipodi="http://sodipodi.sourceforge.net/DTD/sodipodi-0.dtd"
   xmlns="http://www.w3.org/2000/svg"
   xmlns:svg="http://www.w3.org/2000/svg"
   xmlns:rdf="http://www.w3.org/1999/02/22-rdf-syntax-ns#"
   xmlns:cc="http://creativecommons.org/ns#"
   xmlns:dc="http://purl.org/dc/elements/1.1/">
  <sodipodi:namedview
     pagecolor="#ffffff"
     bordercolor="#666666"
     borderopacity="1"
     objecttolerance="10"
     gridtolerance="10"
     guidetolerance="10"
     inkscape:pageopacity="0"
     inkscape:pageshadow="2"
     inkscape:window-width="1898"
     inkscape:window-height="1024"
     id="namedview13"
     showgrid="false"
     inkscape:zoom="3.5849235"
     inkscape:cx="64.018103"
     inkscape:cy="69.45755"
     inkscape:window-x="10"
     inkscape:window-y="44"
     inkscape:window-maximized="1"
     inkscape:current-layer="layer1-5"
     inkscape:showpageshadow="2"
     inkscape:pagecheckerboard="0"
     inkscape:deskcolor="#d1d1d1" />
  <defs
     id="defs5050">
    <style
       id="current-color-scheme"
       type="text/css">      .ColorScheme-Text {
        color:#31363b;
      }
      .ColorScheme-Background{
        color:#eff0f1;
      }
      .ColorScheme-ViewText {
        color:#31363b;
      }
      .ColorScheme-ViewBackground{
        color:#fcfcfc;
      }
      .ColorScheme-ViewHover {
        color:#3daee9;
      }
      .ColorScheme-ViewFocus{
        color:#3daee9;
      }
      .ColorScheme-ButtonText {
        color:#31363b;
      }
      .ColorScheme-ButtonBackground{
        color:#eff0f1;
      }
      .ColorScheme-ButtonHover {
        color:#3daee9;
      }
      .ColorScheme-ButtonFocus{
        color:#3daee9;
      }</style>
    <filter
       height="1.0960012"
       y="-0.048000608"
       width="1.0960012"
       x="-0.048000608"
       id="filter4615"
       style="color-interpolation-filters:sRGB">
      <feGaussianBlur
         id="feGaussianBlur4617"
         stdDeviation="0.75428574" />
    </filter>
  </defs>
  <metadata
     id="metadata5053">
    <rdf:RDF>
      <cc:Work
         rdf:about="">
        <dc:format>image/svg+xml</dc:format>
        <dc:type
           rdf:resource="http://purl.org/dc/dcmitype/StillImage" />
        <dc:title />
      </cc:Work>
    </rdf:RDF>
  </metadata>
  <g
     transform="matrix(3.0884849,0,0,3.0884849,-1186.0347,-1565.9121)"
     id="layer1-5"
     style="stroke-width:1.03022">
    <path
       id="circle4589"
       style="opacity:0.15;fill:#ffffff;fill-opacity:1;stroke-width:0.312685;filter:url(#filter4615)"
       d="M 404.68604 508.8268 A 18.857143 18.857143 0 0 0 385.82882 527.68402 A 18.857143 18.857143 0 0 0 404.68604 546.54061 A 18.857143 18.857143 0 0 0 423.54263 527.68402 A 18.857143 18.857143 0 0 0 404.68604 508.8268 z M 401.04727 517.87124 C 401.34673 517.85821 401.66583 517.9687 401.95222 518.2551 L 409.71417 526.01704 C 410.85884 527.16171 410.86541 528.19913 409.71417 529.35037 L 401.95222 537.11231 C 400.80793 538.2566 399.14159 536.59026 400.28588 535.44597 L 407.40468 528.32716 C 407.97688 527.75496 407.97694 527.61249 407.40468 527.04025 L 400.28588 519.92144 C 399.42651 519.06207 400.1489 517.91031 401.04727 517.87124 z " />
    <path
       id="path3773"
       style="opacity:0.6;fill:#ffffff;stroke-width:1.03022"
       d="M 404.74043 507.01627 A 20.722134 20.722134 0 0 0 384.01829 527.73841 A 20.722134 20.722134 0 0 0 404.74043 548.46054 A 20.722134 20.722134 0 0 0 425.46256 527.73841 A 20.722134 20.722134 0 0 0 404.74043 507.01627 z M 401.04727 517.87124 C 401.34673 517.85821 401.66583 517.9687 401.95222 518.2551 L 409.71417 526.01704 C 410.85884 527.16171 410.86541 528.19913 409.71417 529.35037 L 401.95222 537.11231 C 400.80793 538.2566 399.14159 536.59026 400.28588 535.44597 L 407.40468 528.32716 C 407.97688 527.75496 407.97694 527.61312 407.40468 527.04088 L 400.28588 519.92207 C 399.42651 519.0627 400.1489 517.91031 401.04727 517.87124 z " />
  </g>
</svg>
